<?xml version="1.0" encoding="UTF-8" standalone="no"?>
<!-- Generator: Adobe Illustrator 16.0.0, SVG Export Plug-In . SVG Version: 6.00 Build 0)  -->
<svg id="レイヤー_1" xmlns:rdf="http://www.w3.org/1999/02/22-rdf-syntax-ns#" xmlns="http://www.w3.org/2000/svg" enable-background="new 0 0 128 128" xmlns:osb="http://www.openswatchbook.org/uri/2009/osb" xml:space="preserve" height="88" viewBox="0 0 285 88" width="285" version="1.1" y="0px" x="0px" xmlns:cc="http://creativecommons.org/ns#" xmlns:xlink="http://www.w3.org/1999/xlink" xmlns:dc="http://purl.org/dc/elements/1.1/"><defs><path id="SVGID_1_" d="m100.67 68.58c-1.23 0.81-2.48 1.65-3.7 2.65-7.29 5.99-14.22 10.25-21.19 12.99-6.07 2.39-12.05 3.86-17.78 4.36-3.73 0.34-7.67 0.36-11.72 0.08-4.63-0.33-9.38-1.09-14.16-2.23 0.61-1.35 1.11-2.76 1.49-4.19 0.46-1.71 0.62-3.94 0.46-5.88 0.71 0.24 1.4 0.46 2.11 0.72 2.24 0.83 4.52 1.37 6.79 1.39 1.7 0 2.92-1.6 4.25-3.12 1.45-1.67 2.98-3.31 3.28-6.73 0.08-0.81 0.35-1.94-0.02-2.53-0.43-0.71-1.41-0.59-1.95-0.74-0.72-0.18-1.42-0.26-2.12-0.35-2.04-0.26-3.94-0.11-5.95 0.33-2.28 0.49-4.61 1.16-6.82 2.25-0.29 0.14-0.57 0.32-0.86 0.49-0.44-1.9-1.16-3.75-1.84-5.57-0.53-1.42-0.88-2.85-2.13-3.85-0.67-0.54-2.38-1.03-2.7 0.14-0.13 0.49 0.17 1.2 0.53 1.87 0.29 0.54 0.6 1.05 0.73 1.42 0.92 2.68 1.35 5.5 1.77 8.28 0.51 3.31 0.64 6.1 0.41 9.46-0.11 1.59-0.55 3.12-1.09 4.46-0.15 0.36-0.32 0.71-0.51 1.05-3.52-1.07-6.73-2.38-9.73-4.02l-0.75-0.41c-3.26-1.77-7.32-3.98-9.54-7.29 0.02-0.26 0.03-0.57 0.01-0.96 0.71-1.05 2.51-0.66 3.48-0.32 1.25 0.44 2.44 1.28 3.76 1.16 1.27-0.11 1.74-1.39 1.05-2.41-0.66-1-2.27-1.47-3.3-1.98-1.18-0.59-2.58-0.85-3.85-1.21-0.8-0.23-1.64-0.32-2.48-0.34 0.06-0.09 0.1-0.17 0.16-0.26 0.17-0.26 0.35-0.52 0.5-0.78 0.58-0.93 1.22-1.82 1.85-2.68 1.25-1.67 2.62-3.28 4.11-4.8 1.19-1.21 2.45-2.35 3.75-3.4 0.86-0.64 2.97-1.83 6.13-1.24 3.35 0.63 5.33 2.24 11.23 1.31 5.91-0.93 6.6-3.7 12.36-3.7s7.78 4.5 14.83 4.84c6.28 0.29 6.85-3.45 12.88-2.55 6.03 0.89 6.6 6.7 14.73 6.7s9.28-2.9 17.78 3.29c-0.03 0.28-0.1 0.57-0.18 0.87-1.08 0.13-2.08 0.53-2.92 1.21-0.96 0.76-2.02 1.47-3.14 2.22z"/></defs><metadata id="metadata4299"><rdf:RDF><cc:Work rdf:about=""><dc:format>image/svg+xml</dc:format><dc:type rdf:resource="http://purl.org/dc/dcmitype/StillImage"/><dc:title/></cc:Work></rdf:RDF></metadata><g id="layer1"><g id="g4273" transform="translate(-.19140 -19.787)"><g id="g4275"><g id="g4277"><path id="path4279" fill="#006ca2" d="m127.46 74.16c-0.52-1.82-1.49-3.31-2.37-4.68-0.56-0.85-1.18-1.83-1.53-2.78-0.38-1.08-0.89-2.03-1.38-2.94-0.46-0.85-0.89-1.64-1.1-2.38-0.39-1.31-0.16-2.94 0.1-4.66 0.08-0.51 0.15-1.01 0.21-1.51 0.25-2.02 0.62-4.02 1.11-5.95 0.07-0.24 0.18-0.61 0.32-1.07 1.6-5.2 2.09-7.82 0.75-9.62-0.62-0.85-1.6-1.33-2.66-1.33-1.52 0-2.83 1.01-3.81 1.89-0.87 0.78-1.53 1.68-2.11 2.48l-0.46 0.64c-0.94 1.25-1.89 2.48-2.85 3.71-1.27 1.65-2.55 3.31-3.81 5-0.3 0.39-0.6 0.86-0.94 1.36-0.5 0.78-1.69 2.6-2.33 2.75-0.38 0-1.12-0.36-1.72-0.65l-0.45-0.21c-3.45-1.64-7.18-3.38-11.06-4.99-0.91-1.87-2.31-3.55-3.31-5.35-1.29-2.34-2.55-6.72-5.93-5.96-2.46 0.56-4.96 3.59-6.74 5.24-0.24 0.22-0.46 0.42-0.65 0.61-7.38-2.01-14.75-3.58-22.33-3.99-0.58-1.81-0.5-3.93-0.32-5.87 0.21-2.26 0.77-5.25-2.55-4.25-2.17 0.65-4.09 2.55-5.87 3.9-2.78 2.12-5.1 4.63-7.33 7.31-2.34 0.46-4.63 1.03-6.83 1.76-7.78 2.58-14.58 6.79-20.22 12.53-1.65 1.69-3.19 3.5-4.58 5.36-0.73 0.97-1.44 1.98-2.11 3.05l-0.43 0.65c-0.57 0.86-1.21 1.83-1.64 3.1-0.86 2.54 0.72 4.24 1.47 5.06l0.44 0.4c0.01 0.23 0 0.4-0.01 0.55-0.04 0.92-0.02 1.85 0.9 3.28 2.85 4.37 7.84 7.08 11.49 9.06l0.74 0.41c4.04 2.21 8.38 3.89 13.25 5.17 2.66 0.69 5.32 1.26 7.96 1.72 0.79 0.62 1.56 1.14 1.75 1.26 3.04 2.04 6.93 4.26 10.71 4.26 2.92 0 0.62-2.93-0.19-4-0.07-0.09-0.13-0.19-0.21-0.29 0.96 0.03 1.95 0.11 2.88 0.11 2.28 0 4.53-0.1 6.71-0.29 6.24-0.55 12.73-2.14 19.29-4.72 0.17-0.07 0.33-0.14 0.49-0.21 0.26 0.04 0.52 0.08 0.69 0.11 2.23 0.4 4.52 1.31 6.81 1.15 3.18-0.23 3.24-1.82 4.31-4.35 0.51-1.16 0.82-2.36 1.3-3.52 0.06-0.14 0.13-0.31 0.2-0.46 2.92-1.93 5.86-4.11 8.85-6.58 1.01-0.82 2.1-1.55 3.26-2.32 1.17-0.79 2.39-1.6 3.76-2.6 1.12 0 3.21 1.53 4.21 2.26l1.13 0.82c1.99 1.45 4.05 2.95 6.37 4.14 1.05 0.54 3.05 1.45 4.74 1.45 1.72 0 2.64-0.89 3.04-1.41 0.59-0.65 1.09-1.83 0.59-3.61z"/></g></g><g id="g4281"><use id="use4286" xlink:href="#SVGID_1_" height="100%" width="100%" y="0" x="0" overflow="visible" fill="#40c0e7"/><clipPath id="SVGID_2_"><use id="use4289" xlink:href="#SVGID_1_" height="100%" width="100%" y="0" x="0" overflow="visible"/></clipPath><path id="path4291" fill="#fff" d="m5.32 69.55s18.87 6.14 52.2 5.44c28.2-0.59 54.3-13.13 54.3-13.13l-0.93 5.13-5.34 1.48s-21.87 22.24-47.29 22.85c-9.07 0.21-22.21-0.8-30.33-3.35-14.67-4.64-21.82-12.26-21.82-12.26l-0.79-6.16z" clip-path="url(#SVGID_2_)"/></g><path id="path4293" fill="#2f2f2f" d="m17.3 60.96c-1.85 0.1-3.3 1.88-3.2 3.95 0.1 2.08 1.68 3.67 3.53 3.57 1.87-0.11 3.32-1.87 3.22-3.95-0.11-2.07-1.69-3.68-3.55-3.57z"/></g><g id="flowRoot4919" fill="#4d698d" transform="translate(21.438 -6.0944)"><path id="path4949" d="m188.59 55.341q-3.125-5.6152-7.7637-10.01l2.4902-2.6367q5.0293 4.7852 8.4473 10.84l-3.1738 1.8066zm-13.428-1.2207q-2.2949-4.1504-5.1758-7.959l2.8809-2.1973q3.0762 4.0039 5.4688 8.3984l-3.1738 1.7578zm-13.086 0.24414q-1.3672-4.2969-4.248-7.7637l2.7344-2.3438q3.418 4.0039 4.9805 9.0332l-3.4668 1.0742zm-18.26-0.878q2.6367-4.4434 4.6387-9.2285l3.3203 1.3672q-2.0508 5.0293-4.7852 9.7168l-3.1738-1.8555zm7.666-11.572q0.58593-9.5703 0.0488-19.092-2.6855 2.3926-5.9082 4.3457-0.63477-1.6113-2.1484-2.5391 5.127-3.0273 8.3496-6.8359 3.2227-3.8574 6.0059-9.5703 1.5625 0.87891 3.3203 1.4648-0.92773 2.1484-2.1484 4.1992h16.992l0.48829 2.832q-1.123 0.24414-1.8066 0.97656-0.63476 0.68359-4.1504 4.7363h13.33q-0.63476 9.7168-0.0977 19.482h-32.275zm17.773-10.889h11.279v-6.2988h-11.279v6.2988zm-3.3203 0v-6.2988h-11.133v6.2988h11.133zm3.3203 2.1484v6.3965h11.23v-6.3965h-11.23zm-3.3203 0h-11.133v6.3965h11.133v-6.3965zm0.43945-10.742-0.0977-0.14648 5.3223-6.0547h-14.062q-2.3926 3.3203-5.5664 6.2012h14.404z"/><path id="path4951" d="m219.2 54.462q-1.7578-0.19531-3.5644 0 0.14649-3.2715 0.14649-6.543l0.0488-8.7402h7.4707v-4.834h-3.0762q-2.2461 0-4.4434 0.09766 0.0977-1.1719 0-2.3926 2.1973 0.09766 4.4434 0.09766h3.0762v-4.4434h-9.4238v6.0547q0 13.818-9.082 20.459-1.0742-1.7578-3.125-2.1484 8.9844-4.9805 8.9844-18.311l-0.0488-21.973h12.305l-2.9785-3.0273 2.5879-2.4902 4.541 4.6875-0.8789 0.83008h8.3496q2.1973 0 4.4434-0.09766-0.14649 1.1719 0 2.3926-2.2461-0.09766-4.4434-0.09766h-20.654v11.523h9.4238v-4.4434h-3.0762q-2.2461 0-4.4434 0.09766 0.0977-1.1719 0-2.3926 2.1973 0.09766 4.4434 0.09766h3.0273q-0.0488-1.8555-0.0977-3.7109 1.7578 0.14648 3.5156 0-0.0977 1.8555-0.0977 3.7109h9.5215v6.6406q2.1484 0 4.3457-0.09766-0.14649 1.2207 0 2.3926-2.1973-0.09766-4.3457-0.09766v8.0078h-3.2227v-1.3672h-6.3477v4.834h9.9609v15.186h-3.2715v-3.4668h-14.16q0.0488 1.7578 0.14648 3.5645zm14.02-13.134l-14.16 0.04883v7.5195h14.16v-7.5684zm-6.6895-9.1797h6.3477v-4.4434h-6.3477v4.4434zm0-6.6406h6.3477v-4.4434h-6.3477v4.4434zm-26.807 15.381v-17.432h-2.4902q-2.1973 0-4.3945 0.14648 0.0977-0.68359 0.0977-1.3184 0-0.68359-0.0977-1.3672 2.1973 0.14648 4.3945 0.14648h2.4902v-5.8594q0-3.418-0.14648-6.7871 0.78125 0.097656 1.6113 0.097656 0.83007 0 1.6602-0.097656-0.14648 3.3691-0.14648 6.7871v5.8594l6.1035-0.14648q-0.0488 0.68359-0.0488 1.3672 0 0.63476 0.0488 1.3184l-6.1035-0.14648v15.967l5.4199-2.8809 0.39063 2.1484q-6.8359 3.7598-10.205 5.7617l-4.5898 2.9297q-0.14648-0.87891-0.53711-1.8555-0.39062-1.0254-1.123-1.9043 2.6367-0.68359 4.4434-1.416 1.8066-0.73242 3.2226-1.3184z"/></g><g id="text4944" fill="#4d698d"><path id="path4954" d="m148.56 74.505q0 1.9531-1.2793 3.1055-1.2695 1.1523-3.457 1.1523h-4.043v5.3613h-1.8652v-13.76h5.791q2.3145 0 3.584 1.084t1.2695 3.0566zm-1.875 0.01953q0-2.666-3.2031-2.666h-3.7012v5.4297h3.7793q3.125 0 3.125-2.7637z"/><path id="path4956" d="m151.02 84.124v-8.1055q0-1.1133-0.0586-2.4609h1.6602q0.0781 1.7969 0.0781 2.1582h0.0391q0.41992-1.3574 0.96679-1.8555 0.54688-0.49805 1.543-0.49805 0.35156 0 0.71289 0.09766v1.6113q-0.35156-0.09766-0.9375-0.09766-1.0938 0-1.6699 0.94726-0.57617 0.9375-0.57617 2.6953v5.5078h-1.7578z"/><path id="path4958" d="m166.6 78.831q0 2.7734-1.2207 4.1309-1.2207 1.3574-3.5449 1.3574-2.3144 0-3.4961-1.4062-1.1816-1.416-1.1816-4.082 0-5.4688 4.7363-5.4688 2.4219 0 3.5644 1.3379 1.1426 1.3281 1.1426 4.1309zm-1.8457 0q0-2.1875-0.6543-3.1738-0.64453-0.99609-2.1777-0.99609-1.543 0-2.2363 1.0156-0.6836 1.0059-0.6836 3.1543 0 2.0898 0.67383 3.1445 0.68359 1.0449 2.1387 1.0449 1.582 0 2.2559-1.0156 0.6836-1.0156 0.6836-3.1738z"/><path id="path4960" d="m168.78 71.312v-1.6797h1.7578v1.6797h-1.7578zm1.7578 14.121q0 1.4941-0.58594 2.168-0.58593 0.67383-1.7578 0.67383-0.75195 0-1.2402-0.08789v-1.3574l0.60547 0.05859q0.67382 0 0.94726-0.35156t0.27344-1.3672v-11.611h1.7578v11.875z"/><path id="path4962" d="m174.59 79.212q0 1.8164 0.75195 2.8027 0.75195 0.98633 2.1973 0.98633 1.1426 0 1.8262-0.45898 0.69336-0.45898 0.9375-1.1621l1.543 0.43945q-0.94726 2.5-4.3066 2.5-2.3438 0-3.5742-1.3965-1.2207-1.3965-1.2207-4.1504 0-2.6172 1.2207-4.0137 1.2305-1.3965 3.5058-1.3965 4.6582 0 4.6582 5.6152v0.23438h-7.5391zm5.7226-1.3477q-0.14648-1.6699-0.84961-2.4316-0.70312-0.77148-2.0215-0.77148-1.2793 0-2.0312 0.85938-0.74219 0.84961-0.80078 2.3438h5.7031z"/><path id="path4964" d="m185.72 78.792q0 2.1094 0.66406 3.125 0.66407 1.0156 2.002 1.0156 0.9375 0 1.5625-0.50781 0.63476-0.50781 0.78125-1.5625l1.7773 0.11719q-0.20508 1.5234-1.2988 2.4316-1.0938 0.9082-2.7734 0.9082-2.2168 0-3.3887-1.3965-1.1621-1.4062-1.1621-4.0918 0-2.666 1.1719-4.0625 1.1719-1.4062 3.3594-1.4062 1.6211 0 2.6856 0.83984 1.0742 0.83984 1.3477 2.3145l-1.8066 0.13672q-0.13672-0.87891-0.69336-1.3965-0.55664-0.51758-1.582-0.51758-1.3965 0-2.0215 0.92773t-0.625 3.125z"/><path id="path4966" d="m198.44 84.046q-0.86914 0.23438-1.7773 0.23438-2.1094 0-2.1094-2.3926v-7.0508h-1.2207v-1.2793h1.2891l0.51758-2.3633h1.1719v2.3633h1.9531v1.2793h-1.9531v6.6699q0 0.76172 0.24414 1.0742 0.2539 0.30274 0.86914 0.30274 0.35156 0 1.0156-0.13672v1.2988z"/><path id="path4968" d="m207.63 71.888v5.1172h7.6758v1.543h-7.6758v5.5762h-1.8652v-13.76h9.7754v1.5234h-7.9102z"/><path id="path4970" d="m217.69 71.312v-1.6797h1.7578v1.6797h-1.7578zm0 12.812v-10.566h1.7578v10.566h-1.7578z"/><path id="path4972" d="m230.08 81.204q0 1.4941-1.1328 2.3047-1.123 0.81055-3.1543 0.81055-1.9727 0-3.0469-0.64453-1.0644-0.6543-1.3867-2.0312l1.5527-0.30273q0.22461 0.84961 0.92773 1.25 0.70313 0.39062 1.9531 0.39062 1.3379 0 1.9531-0.41016 0.625-0.41016 0.625-1.2305 0-0.625-0.42969-1.0156-0.42968-0.39062-1.3867-0.64453l-1.2598-0.33203q-1.5137-0.39062-2.1582-0.76172-0.63477-0.38086-0.9961-0.91797-0.36132-0.53711-0.36132-1.3184 0-1.4453 1.0254-2.1973 1.0352-0.76172 3.0078-0.76172 1.748 0 2.7734 0.61524 1.0352 0.61523 1.3086 1.9727l-1.582 0.19531q-0.14649-0.70312-0.79102-1.0742-0.63476-0.38086-1.709-0.38086-1.1914 0-1.7578 0.36133-0.56641 0.36133-0.56641 1.0938 0 0.44922 0.23437 0.74219 0.23438 0.29297 0.69336 0.49805 0.45899 0.20508 1.9336 0.56641 1.3965 0.35156 2.0117 0.6543 0.61523 0.29297 0.96679 0.6543 0.36133 0.36133 0.55664 0.83984 0.19532 0.46875 0.19532 1.0742z"/><path id="path4974" d="m233.9 75.364q0.5664-1.0352 1.3574-1.5137 0.80078-0.48828 2.0215-0.48828 1.7188 0 2.5293 0.85938 0.82031 0.84961 0.82031 2.8613v7.041h-1.7676v-6.6992q0-1.1133-0.20507-1.6504-0.20508-0.54688-0.67383-0.80078-0.46875-0.25391-1.2988-0.25391-1.2402 0-1.9922 0.85938-0.74219 0.85938-0.74219 2.3145v6.2305h-1.7578v-14.492h1.7578v3.7695q0 0.5957-0.0391 1.2305-0.0293 0.63476-0.0391 0.73242h0.0293z"/><path id="path4976" d="m252.22 78.792q0 5.5273-3.8867 5.5273-2.4414 0-3.2812-1.8359h-0.0488q0.0391 0.07813 0.0391 1.6602v4.1309h-1.7578v-12.559q0-1.6309-0.0586-2.1582h1.6992q0.01 0.03906 0.0293 0.2832 0.0195 0.23438 0.0391 0.73242 0.0293 0.49805 0.0293 0.68359h0.0391q0.46875-0.97656 1.2402-1.4258 0.77148-0.45898 2.0312-0.45898 1.9531 0 2.9199 1.3086t0.9668 4.1113zm-1.8457 0.03906q0-2.207-0.59571-3.1543-0.5957-0.94727-1.8945-0.94727-1.0449 0-1.6406 0.43945-0.58594 0.43945-0.89844 1.377-0.30274 0.92774-0.30274 2.4219 0 2.0801 0.66407 3.0664 0.66406 0.98633 2.1582 0.98633 1.3086 0 1.9043-0.95703 0.60547-0.9668 0.60547-3.2324z"/><path id="path4978" d="m263.35 78.831q0 2.7734-1.2207 4.1309-1.2207 1.3574-3.5449 1.3574-2.3145 0-3.4961-1.4062-1.1816-1.416-1.1816-4.082 0-5.4688 4.7363-5.4688 2.4219 0 3.5644 1.3379 1.1426 1.3281 1.1426 4.1309zm-1.8457 0q0-2.1875-0.6543-3.1738-0.64453-0.99609-2.1777-0.99609-1.543 0-2.2363 1.0156-0.6836 1.0059-0.6836 3.1543 0 2.0898 0.67383 3.1445 0.6836 1.0449 2.1387 1.0449 1.582 0 2.2559-1.0156 0.6836-1.0156 0.6836-3.1738z"/><path id="path4980" d="m272.26 84.124v-6.6992q0-1.0449-0.20508-1.6211-0.20508-0.57617-0.65429-0.83008-0.44922-0.25391-1.3184-0.25391-1.2695 0-2.002 0.86914-0.73242 0.86914-0.73242 2.4121v6.123h-1.7578v-8.3105q0-1.8457-0.0586-2.2559h1.6602q0.01 0.04883 0.0195 0.26367 0.01 0.21484 0.0195 0.49805 0.0195 0.27344 0.0391 1.0449h0.0293q0.60547-1.0938 1.3965-1.543 0.80078-0.45898 1.9824-0.45898 1.7383 0 2.5391 0.86914 0.81055 0.85938 0.81055 2.8516v7.041h-1.7676z"/><path id="path4982" d="m283.35 82.425q-0.48828 1.0156-1.2988 1.4551-0.80078 0.43945-1.9922 0.43945-2.002 0-2.9492-1.3477-0.9375-1.3477-0.9375-4.082 0-5.5273 3.8867-5.5273 1.2012 0 2.002 0.43945 0.80078 0.43945 1.2891 1.3965h0.0195l-0.0195-1.1816v-4.3848h1.7578v12.314q0 1.6504 0.0586 2.1777h-1.6797q-0.0293-0.15625-0.0684-0.72266-0.0293-0.56641-0.0293-0.97656h-0.0391zm-5.332-3.5938q0 2.2168 0.58594 3.1738 0.58593 0.95703 1.9043 0.95703 1.4941 0 2.168-1.0352 0.67383-1.0352 0.67383-3.2129 0-2.0996-0.67383-3.0762-0.67383-0.97656-2.1484-0.97656-1.3281 0-1.9238 0.98633-0.58594 0.97656-0.58594 3.1836z"/></g></g></svg>
